<svg xmlns="http://www.w3.org/2000/svg" xmlns:xlink="http://www.w3.org/1999/xlink" viewBox="0 0 284.78 375.84"><defs><style>.cls-1{fill:url(#linear-gradient);}.cls-2{fill:url(#linear-gradient-2);}.cls-3{fill:url(#linear-gradient-3);}.cls-4{fill:url(#linear-gradient-4);}.cls-5{fill:url(#linear-gradient-5);}.cls-6{fill:url(#linear-gradient-6);}.cls-7{fill:url(#linear-gradient-7);}.cls-8{fill:url(#linear-gradient-8);}.cls-9{fill:url(#linear-gradient-9);}.cls-10{fill:url(#linear-gradient-10);}.cls-11{fill:url(#linear-gradient-11);}.cls-12{font-size:50.06px;fill:#d66830;font-family:Montserrat-Bold, Montserrat;font-weight:700;letter-spacing:0em;}.cls-13{font-size:30.94px;fill:#108a80;font-family:Montserrat-Regular, Montserrat;letter-spacing:-0.05em;}.cls-14{letter-spacing:0em;}.cls-15{letter-spacing:-0.02em;}.cls-16{letter-spacing:0.01em;}.cls-17{letter-spacing:-0.01em;}.cls-18{letter-spacing:-0.01em;}</style><linearGradient id="linear-gradient" x1="143.39" y1="129.44" x2="145.19" y2="248.17" gradientUnits="userSpaceOnUse"><stop offset="0" stop-color="#5bc4bf"/><stop offset="1" stop-color="#108a80"/></linearGradient><linearGradient id="linear-gradient-2" x1="65.44" y1="186.23" x2="65.87" y2="186.23" gradientUnits="userSpaceOnUse"><stop offset="0" stop-color="#fff"/><stop offset="1"/></linearGradient><linearGradient id="linear-gradient-3" x1="153.95" y1="204.61" x2="263.51" y2="254.86" xlink:href="#linear-gradient"/><linearGradient id="linear-gradient-4" x1="73.59" y1="204.61" x2="183.15" y2="254.86" gradientTransform="matrix(-1, 0, 0, 1, 203.65, 0)" xlink:href="#linear-gradient"/><linearGradient id="linear-gradient-5" x1="243.72" y1="223.54" x2="243.88" y2="223.54" xlink:href="#linear-gradient-2"/><linearGradient id="linear-gradient-6" x1="143.39" y1="-45.97" x2="141.9" y2="238.81" xlink:href="#linear-gradient"/><linearGradient id="linear-gradient-7" x1="21.76" y1="174.64" x2="79.7" y2="174.64" xlink:href="#linear-gradient-2"/><linearGradient id="linear-gradient-8" x1="130.35" y1="138.76" x2="164.64" y2="103.97" gradientUnits="userSpaceOnUse"><stop offset="0" stop-color="#108a80"/><stop offset="1" stop-color="#5bc4bf"/></linearGradient><linearGradient id="linear-gradient-9" x1="122.61" y1="141.77" x2="124.06" y2="141.77" xlink:href="#linear-gradient-2"/><linearGradient id="linear-gradient-10" x1="229.54" y1="203.68" x2="258.18" y2="203.68" xlink:href="#linear-gradient"/><linearGradient id="linear-gradient-11" x1="24.96" y1="203.68" x2="53.6" y2="203.68" xlink:href="#linear-gradient-8"/></defs><g id="Layer_2" data-name="Layer 2"><g id="Layer_1-2" data-name="Layer 1"><path class="cls-1" d="M201.78,70.38c-1.16,64.46-5.05,137.8-36.74,193.08h0c-4.06,6.83-14.39,19-14.4,19l-8.86,5.67c-8.26-4.83-14-12.42-19.25-20.35h0C85.83,208.37,83.33,124,83,54.47,84.42,82,89.1,105,100.77,127.92h0c31.67,59.41,78.07,29.24,92.54-23.14a197,197,0,0,0,8.29-50.31Q201.77,62.35,201.78,70.38Z"/><path class="cls-2" d="M65.87,185.43c-.14.54-.28,1.08-.43,1.6l.42-1.59Z"/><path class="cls-3" d="M269.06,213.42C256,249.21,198.54,292.16,148.53,291a36.78,36.78,0,0,0,8.17-6h0c33.62-36.94,43.47-93.24,54.18-143.15C214.81,200.13,231.63,249.63,269.06,213.42Z"/><path class="cls-4" d="M15,213.42C28,249.21,85.48,292.16,135.49,291a36.55,36.55,0,0,1-8.17-6h0C93.67,248,83.82,191.73,73.12,141.82,69.21,200.13,52.38,249.63,15,213.42Z"/><path class="cls-5" d="M243.73,223.54l.15,0-.16,0Z"/><path class="cls-6" d="M284.78,144.8a147.36,147.36,0,0,1-4.63,36.77v0a146,146,0,0,1-4.7,14.87l-3.48-2-4.84-2.78-9.43-5.44h0l-1.2-.7-1.22-.7,1-1.64,3.17-5.49,0,0a112.42,112.42,0,0,0,4.65-19.95,114.47,114.47,0,0,0,1-11.67c0-1.41.08-2.84.08-4.27C265.18,108,250.52,77.59,227,56a120.45,120.45,0,0,0-11.65-9.42c-2.45-1.75-5-3.43-7.56-5q-2.92-1.8-5.95-3.39a3.77,3.77,0,0,0-.48-.26,120.34,120.34,0,0,0-15.19-6.76,127.81,127.81,0,0,0-60.36-6.69h0a124.24,124.24,0,0,0-17.9,3.67q-4.58,1.26-9,2.91A120,120,0,0,0,83.42,38a3.77,3.77,0,0,0-.48.26q-3.15,1.66-6.18,3.52c-2.42,1.48-4.78,3-7.07,4.66a122.27,122.27,0,0,0-12.12,9.82h0c-23.39,21.52-38,51.87-38,85.5,0,1.39,0,2.75.07,4.12h0a115,115,0,0,0,4.8,29c1.06,3.53,2.3,7,3.69,10.38q-.27.53-.51,1.08l-9.37,5.42-5.18,3L9.46,196.8a143.27,143.27,0,0,1-4.85-15.3A147.38,147.38,0,0,1,0,144.8q0-5.84.45-11.56A145.06,145.06,0,0,1,68.56,21q2.56-1.59,5.22-3.07,5.31-3,10.9-5.5a.84.84,0,0,1,.14-.06c.59-.28,1.19-.54,1.79-.8L87.93,11c.79-.34,1.58-.68,2.38-1,1.12-.45,2.25-.88,3.38-1.29.5-.2,1-.37,1.51-.55s1-.37,1.51-.53c1-.35,2-.67,3-1,1.18-.39,2.37-.74,3.56-1.1a141,141,0,0,1,78.57.09c.78.23,1.55.46,2.33.71l1.54.48.26.1c.39.11.77.25,1.15.37,2,.67,4,1.39,5.91,2.14l.72.29c.24.08.48.18.72.28h0l5.5,2.34.14.06c3.65,1.63,7.22,3.44,10.7,5.38,1.92,1.08,3.82,2.2,5.68,3.35a145.11,145.11,0,0,1,67.93,113.24Q284.79,139.53,284.78,144.8Z"/><path class="cls-7" d="M79.7,137.23c0,.57-.07,1.14-.1,1.71M21.9,210.31c.22.58.45,1.16.7,1.73-.29-.28-.56-.56-.84-.85m6.67-19.34-.78.45"/><path class="cls-8" d="M166.8,125.87c0-.28,0-.56,0-.83,0-.11,0-.22,0-.33,0-.28-.05-.56-.08-.85h0c-.06-.59-.15-1.18-.26-1.77h0a23.46,23.46,0,0,0-2.66-7.4,24.43,24.43,0,0,0-32.5-9.88c-.47.24-.94.5-1.4.78a24.13,24.13,0,0,0-5.45,4.45l-.52.59a20,20,0,0,0-1.46,1.87c-.17.23-.31.46-.47.69l-.45.72-.36.61-.09.16a20.59,20.59,0,0,0-.94,1.88,6.65,6.65,0,0,0-.27.61c-.07.17-.15.35-.21.53l-.22.57c-.12.33-.23.67-.33,1,0,0,0,.08,0,.12l-.24.84c-.18.69-.33,1.36-.45,2.06a24.13,24.13,0,0,0-.38,4.27c0,.35,0,.68,0,1s0,.55.06.83c0,0,0,0,0,0a0,0,0,0,0,0,0c0,.26,0,.52.08.77,0,.46.11.93.18,1.37a6,6,0,0,0,.12.61c.07.4.15.79.26,1.2.06.25.12.5.19.74,0,0,0,0,0,.06.07.24.14.48.22.72a7.32,7.32,0,0,0,.25.75l.27.73s0,0,0,0c.09.24.19.48.29.72a5.55,5.55,0,0,0,.32.7c.1.22.21.44.32.66a.2.2,0,0,0,.05.09c.23.45.47.88.72,1.32.13.23.27.44.4.65.28.44.57.87.87,1.28.46.63.94,1.23,1.45,1.82l.42.47c.2.22.41.43.64.65s.23.23.35.35c.29.29.59.56.91.83s.66.56,1,.83a.18.18,0,0,0,.07.05c.2.15.39.31.59.44.41.31.84.61,1.28.88l.63.38c.23.14.47.28.71.4l.69.36.62.32a24.23,24.23,0,0,0,2.94,1.15h0c.33.12.67.21,1,.3s.41.11.62.16a7.54,7.54,0,0,0,.94.22l1,.2,1.42.17a10.94,10.94,0,0,0,1.14.09h.09l1.2,0a24.69,24.69,0,0,0,3.57-.26,3,3,0,0,0,.51-.09l.84-.15c.4-.07.79-.17,1.18-.27.69-.18,1.37-.38,2-.62a6.31,6.31,0,0,0,.68-.26,3.28,3.28,0,0,0,.59-.23l.24-.1q.41-.16.81-.36l.38-.19c.22-.1.43-.21.64-.33s.61-.33.91-.51a5.48,5.48,0,0,0,.52-.31c.19-.11.38-.24.57-.37.6-.39,1.17-.81,1.72-1.24.17-.14.33-.26.5-.41l.55-.49c.38-.33.75-.67,1.1-1s.5-.51.74-.78l.45-.51.44-.52a23.71,23.71,0,0,0,2-2.94c.19-.31.36-.62.53-.94a3.22,3.22,0,0,0,.2-.37,23.49,23.49,0,0,0,1.06-2.35c.16-.43.33-.86.46-1.32.09-.28.18-.56.25-.83s.07-.25.1-.36c.07-.27.14-.54.2-.82a1.45,1.45,0,0,0,.06-.3c.09-.35.15-.7.21-1s.11-.67.14-1a1.22,1.22,0,0,0,0-.32c0-.33.07-.66.1-1v0h0a0,0,0,0,0,0,0c0-.2,0-.4,0-.59a.34.34,0,0,0,0-.1h0c0-.34,0-.68,0-1S166.82,126.09,166.8,125.87Z"/><path class="cls-9" d="M124.06,142.68a22.67,22.67,0,0,1-1.45-1.82C123.07,141.49,123.55,142.09,124.06,142.68Z"/><path class="cls-10" d="M258.18,203.68a14.32,14.32,0,0,1-10.63,13.84,14.53,14.53,0,0,1-3.69.48A14.32,14.32,0,1,1,258,201.18,13.76,13.76,0,0,1,258.18,203.68Z"/><path class="cls-11" d="M53.55,202.41A14.46,14.46,0,0,1,39.36,218a13.43,13.43,0,0,1-3-.3,14.3,14.3,0,0,1-11.41-14,14.31,14.31,0,0,1,14.32-14.32c.44,0,.87,0,1.29.07q.32,0,.63.06l.45.07a15.87,15.87,0,0,1,2,.47c.41.14.82.29,1.22.45l.64.29.61.32c.21.11.41.22.6.34s.3.18.44.28.29.21.44.3.45.33.67.51a14.21,14.21,0,0,1,1.08,1,1,1,0,0,1,.17.18,8.18,8.18,0,0,1,.63.68c.18.2.35.41.51.62s.25.33.37.5l.26.39c.09.13.18.27.26.41s.23.4.34.6a11.37,11.37,0,0,1,.54,1.11l.12.27c.11.26.21.54.3.82s.11.33.16.49c.13.42.24.86.33,1.29,0,.15.06.32.08.47a2.23,2.23,0,0,1,0,.23C53.48,201.83,53.52,202.12,53.55,202.41Z"/><text class="cls-12" transform="translate(14.32 339.4)">All Smiles</text><text class="cls-13" transform="translate(25.09 368.08)">T<tspan class="cls-14" x="16.43" y="0">he</tspan><tspan class="cls-15" x="55.63" y="0">r</tspan><tspan class="cls-16" x="67.32" y="0">a</tspan><tspan class="cls-17" x="85.61" y="0">p</tspan><tspan class="cls-16" x="106.18" y="0">y </tspan><tspan class="cls-18" x="130.9" y="0">C</tspan><tspan class="cls-16" x="152.16" y="0">entre</tspan></text></g></g></svg>